PathFileType	3	(X/Y/Z)	C:\Users\koon_\Desktop\
DataRate	CameraRate	NumFrames	NumMarkers	Units	OrigDataRate	OrigDataStartFrame	OrigNumFrames
100.0	100.0	4	27	mm	100.0	1420	3786	
Frame#	Time	get:LFHD			get:RFHD			get:LBHD			get:RBHD			get:C7			get:T10			get:CLAV			get:STRN			get:RBAK			get:LSHO			get:LUPA			get:LELB			get:LFRA			get:LWRA			get:LWRB			get:LFIN			get:RSHO			get:RUPA			get:RELB			get:RFRA			get:RWRA			get:RWRB			get:RFIN			get:LASI			get:RASI			get:LPSI			get:RPSI			
		X1	Y1	Z1	X2	Y2	Z2	X3	Y3	Z3	X4	Y4	Z4	X5	Y5	Z5	X6	Y6	Z6	X7	Y7	Z7	X8	Y8	Z8	X9	Y9	Z9	X10	Y10	Z10	X11	Y11	Z11	X12	Y12	Z12	X13	Y13	Z13	X14	Y14	Z14	X15	Y15	Z15	X16	Y16	Z16	X17	Y17	Z17	X18	Y18	Z18	X19	Y19	Z19	X20	Y20	Z20	X21	Y21	Z21	X22	Y22	Z22	X23	Y23	Z23	X24	Y24	Z24	X25	Y25	Z25	X26	Y26	Z26	X27	Y27	Z27	
1420	14.19	84.734039	1559.9445	-50.195061	-72.011322	1557.826	-62.091957	88.522316	1576.5488	-173.81932	-36.039509	1587.0463	-200.72333	-6.9891653	1375.4105	-250.79633	20.644991	1130.2527	-265.16934	0.94908345	1317.6187	-63.889496	28.175148	1134.9104	-8.7876406	-78.448669	1310.8752	-271.46344	90.170082	1411.4891	-194.29927	176.79866	1467.925	-182.24921	301.79828	1541.645	-138.42615	198.00278	1495.4938	-184.42934	110.11717	1498.1073	-222.92514	142.8743	1540.6823	-265.00897	86.331284	1496.1514	-318.1821	-150.21964	1362.1704	-157.03305	-213.34853	1139.6593	-147.9008	-214.6543	1038.0085	-211.68558	-208.57761	966.79694	-132.58195	-194.94159	813.80377	-112.16036	-227.16051	815.95392	-179.28618	-239.00754	743.71564	-124.24375	150.18715	932.19775	-78.984306	-126.07919	914.5365	-75.113022	62.732971	963.53485	-275.86682	-44.849445	950.71405	-275.44437
1421	14.2	84.680115	1560.0096	-49.917469	-72.11927	1557.7769	-61.823792	88.463524	1576.6068	-173.57445	-35.986202	1587.0182	-200.60373	-6.940197	1375.4104	-250.76128	20.494171	1130.2457	-265.10275	1.1413457	1317.642	-63.885452	28.3039	1134.9485	-8.7834063	-78.462311	1310.9299	-271.35434	90.368652	1411.4354	-194.30441	177.19356	1467.703	-182.35539	302.13852	1541.2598	-138.52094	198.50485	1493.8685	-183.93085	110.3628	1495.5895	-221.88837	142.68756	1538.1122	-264.54749	86.014542	1492.8967	-317.16626	-150.08977	1362.264	-156.8031	-213.38368	1139.8467	-147.63626	-214.79488	1038.1521	-211.3595	-208.72862	966.99731	-132.20799	-195.09683	814.04211	-111.60924	-227.48782	816.08752	-178.68494	-239.28844	743.99628	-123.52618	150.1866	932.20404	-79.027405	-126.08887	914.51062	-74.901291	62.484516	963.54175	-275.86276	-45.096352	950.7298	-275.28857
1422	14.21	84.64782	1560.049	-49.704033	-71.906197	1557.4454	-62.727554	88.507553	1576.687	-173.3343	-35.898212	1586.9771	-200.47382	-6.8926029	1375.4047	-250.66588	20.343029	1130.2139	-265.09677	1.2847883	1317.6527	-63.720814	28.384222	1134.9282	-8.6721039	-78.504593	1311.0125	-271.32584	90.542633	1411.3759	-194.31517	177.70233	1467.7802	-182.44957	302.4144	1540.9517	-138.63651	198.97746	1492.542	-183.46867	110.58554	1493.4495	-221.04985	142.48917	1535.9943	-264.04123	85.634895	1490.3676	-316.17825	-149.98582	1362.4073	-156.66112	-213.41826	1140.0238	-147.38797	-214.93858	1038.3538	-211.13107	-208.84335	967.18921	-131.84532	-195.24799	814.2749	-111.18942	-227.64474	816.34351	-178.2821	-239.50549	744.23273	-123.47387	150.17252	932.17572	-79.120979	-126.06466	914.5033	-74.62664	62.301781	963.5155	-275.8349	-45.321354	950.71338	-275.14429
1423	14.22	84.628082	1560.121	-49.466923	-71.887718	1557.3208	-62.70385	88.573891	1576.7783	-173.11237	-35.803883	1586.9286	-200.32327	-6.8472543	1375.417	-250.64415	20.208097	1130.241	-265.05817	1.4938571	1317.6733	-63.611656	28.512392	1134.9409	-8.634306	-78.532387	1311.0669	-271.16162	90.686729	1411.3228	-194.3199	178.03297	1467.611	-182.43864	302.6853	1540.6429	-138.55545	199.55295	1491.4526	-183.09244	111.49486	1491.5583	-221.10599	142.30493	1534.3915	-263.3656	85.208076	1488.5543	-315.37543	-149.8638	1362.5437	-156.54611	-213.44373	1140.2192	-147.14693	-215.11578	1038.4983	-210.80161	-208.9892	967.43634	-131.44624	-195.48895	814.49725	-110.52521	-227.66087	816.63257	-177.89891	-239.87378	744.47742	-122.37474	150.14844	932.17413	-79.194984	-126.06419	914.51477	-74.354233	62.101215	963.51959	-275.81857	-45.511166	950.75452	-274.99484
